<svg id="svg3353" width="20.135mm" height="20.612mm" version="1.1" viewBox="0 0 20.135 20.612" xmlns="http://www.w3.org/2000/svg">
 <g id="layer1" transform="translate(-91.275 -84.126)">
  <path id="path3916" d="m101.77 104.57c-2.5621-0.26355-4.8813-0.81648-6.6093-1.5761-1.8045-0.79375-2.9922-1.8645-3.4055-2.9993-1.2774-3.5078 0.11886-7.0932 2.5848-8.8799 0.87953-0.63664 2.1911-1.0604 3.7187-1.2268 0.037206-0.004134 0.074414-0.008268 0.11266-0.011369-0.1447-0.29146-0.2739-0.60462-0.36587-0.92914-0.33692-1.1782-0.24288-2.4753 0.89916-3.5544 0.84542-0.79891 1.6505-1.1462 2.3719-1.2402 1.2165-0.15916 2.2717 0.39481 3.0747 1.1824 0.26355 0.25838 0.49713 0.54054 0.69969 0.81545 0.52194-0.50022 1.1255-0.85474 1.7932-0.99219 0.83302-0.17053 1.7963-0.029972 2.8681 0.71416 1.449 1.0046 1.8955 2.0671 1.8955 3.0014-0.00104 0.93845-0.49197 1.8386-1.2196 2.5848-0.39791 0.40619-0.86093 0.76687-1.3012 1.0666 0.74826 0.60357 1.3188 1.294 1.6433 2.0505 1.1069 2.5879 1.0387 5.1221 0.0186 6.9919-1.0552 1.9317-3.1224 3.2369-6.1484 3.1668-0.86712-0.01964-1.7198-0.07235-2.5487-0.15503-0.02687-0.0031-0.05477-0.00517-0.08164-0.0093zm-1.0666-14.739c0.6563 0.037206 1.3229 0.11059 1.9834 0.21704 0.18293-0.55605 0.45164-1.2743 0.81028-1.9813-0.13332-0.23461-0.32247-0.53329-0.56017-0.82682-0.35658-0.43717-0.81545-0.91882-1.4242-0.9312-0.39894-0.008269-0.8227 0.21084-1.3084 0.67077-0.58187 0.54983-0.38756 1.2537-0.13642 1.8108 0.19327 0.42685 0.44751 0.79684 0.63561 1.0408zm2.4949 2.5352c-1.6495-0.35968-3.4004-0.47233-4.903-0.308-1.0914 0.11886-2.0464 0.36999-2.6747 0.82476-1.7642 1.2785-2.7284 3.8539-1.8139 6.3656 0.25735 0.709 1.1048 1.2506 2.2335 1.7467 1.4325 0.63045 3.3155 1.0914 5.4044 1.3446 2.2138-2.8784 3.0292-6.1434 2.0236-9.9126-0.07235-0.01757-0.14573-0.034107-0.21911-0.050644-0.01137-0.002067-0.0217-0.004134-0.03307-0.007234-0.00517-0.001034-0.01137-0.002067-0.01757-0.003101zm3.5946-1.1131c0.47543-0.25528 1.2485-0.72141 1.8324-1.3188 0.3111-0.31832 0.59841-0.66146 0.59944-1.0614 0-0.40513-0.32866-0.77102-0.95602-1.2061-0.45061-0.31213-0.83507-0.44132-1.1855-0.36999-0.61082 0.12506-1.0377 0.71004-1.4015 1.3147-0.38653 0.64079-0.67181 1.3519-0.86196 1.9131 0.02377 0.007235 0.04857 0.01447 0.07235 0.021704 0.66868 0.19637 1.3064 0.43408 1.9007 0.70694zm-2.8165 11.285c0.1571 0.00517 0.31523 0.01034 0.47337 0.01447 2.034 0.04651 3.4737-0.73276 4.1828-2.0309 0.74311-1.3611 0.69556-3.2038-0.10956-5.0871-0.33795-0.78962-1.0811-1.4232-2.0381-1.9286-0.11265-0.035139-0.2191-0.08785-0.31522-0.15813-0.09509-0.045477-0.19224-0.088884-0.29044-0.13229 0.60669 3.451-0.10852 6.536-1.9027 9.3223zm-7.4332-8.9133c0.59634 0.080616 1.0159 0.62942 0.93639 1.2268-0.079581 0.59738-0.62942 1.017-1.2268 0.93742l-0.43201-0.057877c-0.59738-0.080616-1.018-0.63045-0.93742-1.2268 0.079581-0.59738 0.62942-1.017 1.2268-0.93742zm3.543 2.9239c-0.60047-0.046508-1.0501-0.57155-1.0036-1.1731 0.046508-0.60047 0.57258-1.0501 1.1731-1.0025l0.4351 0.034107c0.60048 0.046509 1.0501 0.57258 1.0036 1.1731s-0.57259 1.0501-1.1731 1.0036z" fill-rule="evenodd" stroke-width=".26458"/>
 </g>
</svg>
