<svg width="32" height="32" viewBox="0 0 32 32" fill="none" xmlns="http://www.w3.org/2000/svg">
  <!-- Fish body -->
  <path d="M6 16C6 12 8 8 12 6C16 4 20 6 22 10C24 12 25 14 26 16C25 18 24 20 22 22C20 26 16 28 12 26C8 24 6 20 6 16Z" fill="currentColor"/>
  
  <!-- Fish tail -->
  <path d="M26 16L30 12L28 16L30 20L26 16Z" fill="currentColor"/>
  
  <!-- Fish eye -->
  <circle cx="10" cy="14" r="2" fill="white"/>
  <circle cx="10" cy="14" r="1" fill="currentColor"/>
  
  <!-- Fish fins -->
  <path d="M8 10C6 10 5 12 6 14C5 16 6 18 8 18" stroke="currentColor" stroke-width="1.5" fill="none"/>
  <path d="M8 22C6 22 5 20 6 18C5 16 6 14 8 14" stroke="currentColor" stroke-width="1.5" fill="none"/>
</svg>
