<svg id="svg2762" width="23.144mm" height="14.022mm" version="1.1" viewBox="0 0 23.144 14.022" xmlns="http://www.w3.org/2000/svg">
 <g id="layer1" transform="translate(124.9 -44.216)">
  <path id="path3325" d="m-102.75 51.389c-0.01654-0.046509-0.01654-0.098184 0-0.1447 0.04547-0.16123 1.0749-3.084 0.99631-3.1626-0.00207-0.58497-0.47749-1.0583-1.0625-1.0583-1.1875-0.002068-2.2428 0.75861-2.6169 1.8852l-0.2894 0.86402c-1.4707-1.0387-3.1078-1.819-4.8411-2.3068l0.54158-1.4676c0.09818-0.28215 0.031-0.59531-0.17364-0.81235-0.20567-0.21601-0.51572-0.30075-0.802-0.21704-1.0108 0.31522-1.851 1.0242-2.3316 1.9678-0.44339-0.048575-0.88884-0.075449-1.3353-0.07855l0.57878-1.5834c0.09922-0.28215 0.03307-0.59531-0.17363-0.81235-0.20568-0.21601-0.51573-0.29869-0.80201-0.21291-1.3229 0.43304-2.3389 1.5017-2.7038 2.8443-1.8138 0.33589-3.5563 0.97771-5.1551 1.8976l-0.9467 0.54158c-0.63561 0.36999-1.0263 1.0501-1.0263 1.7859s0.39069 1.4159 1.0263 1.7859l0.9467 0.54158c1.6867 0.96843 3.5356 1.6226 5.457 1.9306l2.1373 2.2655c0.37621 0.38137 0.94465 0.49919 1.4428 0.29972 0.49713-0.19947 0.82579-0.678 0.83508-1.2134v-1.2402c0.47956-0.053742 0.95912-0.13229 1.4304-0.23151 0.2894 0.82682 2.0671 2.5466 2.894 1.5544 0.13746-0.1943 0.1695-0.44339 0.08682-0.66559l-0.58291-1.5958c1.2392-0.4744 2.4143-1.1028 3.4975-1.8686l0.2894 0.86402c0.37621 1.1255 1.4304 1.8841 2.6169 1.8852 0.34004-0.002068 0.65836-0.1664 0.8568-0.44132 0.19947-0.27493 0.25632-0.62839 0.15193-0.95189zm-14.746-3.4684c4.2963-0.72967 8.6992 0.41341 12.096 3.1419 0.13746 0.11369 0.17054 0.31006 0.07855 0.46302h-9.7192c0.05374-0.13126 0.08062-0.27181 0.07855-0.41341 0.0062-0.29146-0.11989-0.56946-0.34314-0.75655-0.94464-0.79891-2.3151-0.8413-3.3073-0.10335-0.12402-0.66971-0.3483-1.3157-0.66559-1.9182 0.58497-0.17467 1.1803-0.31213 1.7818-0.41341zm-4.101 2.2118c0.22841 0 0.41341 0.185 0.41341 0.41341 0 0.22841-0.185 0.41341-0.41341 0.41341s-0.41341-0.185-0.41341-0.41341c0-0.22841 0.185-0.41341 0.41341-0.41341zm3.1006 1.0955c0.74827-0.76893 1.8231-0.95086 2.6707-0.24391 0.04961 0.028941 0.04134 0.21497 0 0.23564l-0.50435 0.34726c-0.34313 0.22324-0.82682 0.66559-1.2402 0.47956l-0.92191-0.29766c0.0093-0.17363 0.00723-0.34726-0.00414-0.52091zm8.6815 2.8361c-2.3523 0.83923-4.8763 1.0842-7.3464 0.7152-0.69041-0.10232-1.3725-0.25115-2.0423-0.44648 0.27284-0.55502 0.4744-1.1431 0.59944-1.7487 0.40929 0.16123 0.83717 0.27181 1.2733 0.33073 0.50644-0.041341 0.98496-0.24908 1.3601-0.59118h9.5705c-1.0614 0.72451-2.2107 1.3115-3.4189 1.7487z" fill="#fff" stroke="#fff" stroke-width=".26458"/>
 </g>
</svg>
